<mxfile host="app.diagrams.net" agent="Mozilla/5.0 (Windows NT 10.0; Win64; x64) AppleWebKit/537.36 (KHTML, like Gecko) Chrome/127.0.0.0 Safari/537.36" version="24.7.6">
  <diagram name="Страница — 1" id="zvZoOTljQsXoF5OpHaOJ">
    <mxGraphModel dx="2074" dy="1132" grid="1" gridSize="10" guides="1" tooltips="1" connect="1" arrows="1" fold="1" page="1" pageScale="1" pageWidth="827" pageHeight="1169" math="0" shadow="0">
      <root>
        <mxCell id="0" />
        <mxCell id="1" parent="0" />
        <mxCell id="hq3BjescLCWjUcnF5_h6-1" value="" style="rounded=0;whiteSpace=wrap;html=1;" vertex="1" parent="1">
          <mxGeometry x="35" y="50" width="755" height="1810" as="geometry" />
        </mxCell>
        <mxCell id="hq3BjescLCWjUcnF5_h6-2" value="" style="rounded=0;whiteSpace=wrap;html=1;" vertex="1" parent="1">
          <mxGeometry x="35" y="50" width="755" height="60" as="geometry" />
        </mxCell>
        <mxCell id="hq3BjescLCWjUcnF5_h6-3" value="&lt;b&gt;&lt;font style=&quot;font-size: 16px;&quot;&gt;LOGO&lt;/font&gt;&lt;/b&gt;" style="text;html=1;align=center;verticalAlign=middle;whiteSpace=wrap;rounded=0;" vertex="1" parent="1">
          <mxGeometry x="50" y="65" width="60" height="30" as="geometry" />
        </mxCell>
        <mxCell id="hq3BjescLCWjUcnF5_h6-4" value="Basket" style="text;html=1;align=center;verticalAlign=middle;whiteSpace=wrap;rounded=0;" vertex="1" parent="1">
          <mxGeometry x="710" y="65" width="60" height="30" as="geometry" />
        </mxCell>
        <mxCell id="hq3BjescLCWjUcnF5_h6-7" value="Link1 Link2 Link3" style="text;html=1;align=center;verticalAlign=middle;whiteSpace=wrap;rounded=0;" vertex="1" parent="1">
          <mxGeometry x="334" y="65" width="160" height="30" as="geometry" />
        </mxCell>
        <mxCell id="hq3BjescLCWjUcnF5_h6-8" value="" style="rounded=0;whiteSpace=wrap;html=1;" vertex="1" parent="1">
          <mxGeometry x="35" y="110" width="755" height="100" as="geometry" />
        </mxCell>
        <mxCell id="hq3BjescLCWjUcnF5_h6-9" value="&lt;b&gt;&lt;font style=&quot;font-size: 21px;&quot;&gt;Header text&lt;/font&gt;&lt;/b&gt;" style="text;html=1;align=center;verticalAlign=middle;whiteSpace=wrap;rounded=0;" vertex="1" parent="1">
          <mxGeometry x="297.5" y="145" width="230" height="30" as="geometry" />
        </mxCell>
        <mxCell id="hq3BjescLCWjUcnF5_h6-10" value="" style="rounded=0;whiteSpace=wrap;html=1;" vertex="1" parent="1">
          <mxGeometry x="35" y="210" width="755" height="300" as="geometry" />
        </mxCell>
        <mxCell id="hq3BjescLCWjUcnF5_h6-11" value="" style="rounded=0;whiteSpace=wrap;html=1;" vertex="1" parent="1">
          <mxGeometry x="410" y="510" width="380" height="100" as="geometry" />
        </mxCell>
        <mxCell id="hq3BjescLCWjUcnF5_h6-12" value="" style="rounded=0;whiteSpace=wrap;html=1;" vertex="1" parent="1">
          <mxGeometry x="35" y="510" width="375" height="100" as="geometry" />
        </mxCell>
        <mxCell id="hq3BjescLCWjUcnF5_h6-13" value="" style="rounded=0;whiteSpace=wrap;html=1;" vertex="1" parent="1">
          <mxGeometry x="35" y="610" width="375" height="290" as="geometry" />
        </mxCell>
        <mxCell id="hq3BjescLCWjUcnF5_h6-14" value="" style="rounded=0;whiteSpace=wrap;html=1;" vertex="1" parent="1">
          <mxGeometry x="410" y="610" width="380" height="290" as="geometry" />
        </mxCell>
        <mxCell id="hq3BjescLCWjUcnF5_h6-15" value="" style="rounded=0;whiteSpace=wrap;html=1;" vertex="1" parent="1">
          <mxGeometry x="50" y="630" width="340" height="240" as="geometry" />
        </mxCell>
        <mxCell id="hq3BjescLCWjUcnF5_h6-16" value="Recommended item card" style="rounded=0;whiteSpace=wrap;html=1;" vertex="1" parent="1">
          <mxGeometry x="480" y="640" width="230" height="210" as="geometry" />
        </mxCell>
        <mxCell id="hq3BjescLCWjUcnF5_h6-17" value="" style="rounded=0;whiteSpace=wrap;html=1;" vertex="1" parent="1">
          <mxGeometry x="35" y="900" width="755" height="260" as="geometry" />
        </mxCell>
        <mxCell id="hq3BjescLCWjUcnF5_h6-18" value="Item card" style="rounded=0;whiteSpace=wrap;html=1;" vertex="1" parent="1">
          <mxGeometry x="54" y="920" width="230" height="210" as="geometry" />
        </mxCell>
        <mxCell id="hq3BjescLCWjUcnF5_h6-19" value="Item card" style="rounded=0;whiteSpace=wrap;html=1;" vertex="1" parent="1">
          <mxGeometry x="297.5" y="920" width="230" height="210" as="geometry" />
        </mxCell>
        <mxCell id="hq3BjescLCWjUcnF5_h6-20" value="Item card" style="rounded=0;whiteSpace=wrap;html=1;" vertex="1" parent="1">
          <mxGeometry x="544" y="920" width="230" height="210" as="geometry" />
        </mxCell>
        <mxCell id="hq3BjescLCWjUcnF5_h6-21" value="Animation&amp;nbsp;" style="rounded=0;whiteSpace=wrap;html=1;" vertex="1" parent="1">
          <mxGeometry x="35" y="1160" width="755" height="280" as="geometry" />
        </mxCell>
        <mxCell id="hq3BjescLCWjUcnF5_h6-22" value="Insta&amp;nbsp; link" style="rounded=0;whiteSpace=wrap;html=1;" vertex="1" parent="1">
          <mxGeometry x="35" y="1440" width="755" height="100" as="geometry" />
        </mxCell>
        <mxCell id="hq3BjescLCWjUcnF5_h6-23" value="" style="rounded=0;whiteSpace=wrap;html=1;" vertex="1" parent="1">
          <mxGeometry x="35" y="1540" width="755" height="200" as="geometry" />
        </mxCell>
        <mxCell id="hq3BjescLCWjUcnF5_h6-24" value="" style="rounded=0;whiteSpace=wrap;html=1;" vertex="1" parent="1">
          <mxGeometry x="54" y="1565" width="160" height="150" as="geometry" />
        </mxCell>
        <mxCell id="hq3BjescLCWjUcnF5_h6-25" value="" style="rounded=0;whiteSpace=wrap;html=1;" vertex="1" parent="1">
          <mxGeometry x="610" y="1565" width="160" height="150" as="geometry" />
        </mxCell>
        <mxCell id="hq3BjescLCWjUcnF5_h6-26" value="" style="rounded=0;whiteSpace=wrap;html=1;" vertex="1" parent="1">
          <mxGeometry x="230" y="1565" width="160" height="150" as="geometry" />
        </mxCell>
        <mxCell id="hq3BjescLCWjUcnF5_h6-27" value="" style="rounded=0;whiteSpace=wrap;html=1;" vertex="1" parent="1">
          <mxGeometry x="35" y="1740" width="755" height="120" as="geometry" />
        </mxCell>
        <mxCell id="hq3BjescLCWjUcnF5_h6-28" value="Logo menu" style="text;html=1;align=center;verticalAlign=middle;whiteSpace=wrap;rounded=0;" vertex="1" parent="1">
          <mxGeometry x="50" y="1760" width="60" height="70" as="geometry" />
        </mxCell>
        <mxCell id="hq3BjescLCWjUcnF5_h6-30" value="FAQ&lt;div&gt;&amp;nbsp;menu&lt;/div&gt;" style="text;html=1;align=center;verticalAlign=middle;whiteSpace=wrap;rounded=0;" vertex="1" parent="1">
          <mxGeometry x="382.5" y="1760" width="60" height="80" as="geometry" />
        </mxCell>
        <mxCell id="hq3BjescLCWjUcnF5_h6-31" value="Subscribe&amp;nbsp; field" style="rounded=0;whiteSpace=wrap;html=1;" vertex="1" parent="1">
          <mxGeometry x="579" y="1770" width="201" height="50" as="geometry" />
        </mxCell>
        <mxCell id="hq3BjescLCWjUcnF5_h6-32" value="" style="rounded=0;whiteSpace=wrap;html=1;" vertex="1" parent="1">
          <mxGeometry x="820" y="50" width="600" height="1810" as="geometry" />
        </mxCell>
        <mxCell id="hq3BjescLCWjUcnF5_h6-33" value="" style="rounded=0;whiteSpace=wrap;html=1;" vertex="1" parent="1">
          <mxGeometry x="820" y="50" width="600" height="60" as="geometry" />
        </mxCell>
        <mxCell id="hq3BjescLCWjUcnF5_h6-34" value="&lt;b&gt;&lt;font style=&quot;font-size: 16px;&quot;&gt;LOGO&lt;/font&gt;&lt;/b&gt;" style="text;html=1;align=center;verticalAlign=middle;whiteSpace=wrap;rounded=0;" vertex="1" parent="1">
          <mxGeometry x="835" y="65" width="60" height="30" as="geometry" />
        </mxCell>
        <mxCell id="hq3BjescLCWjUcnF5_h6-35" value="Basket" style="text;html=1;align=center;verticalAlign=middle;whiteSpace=wrap;rounded=0;" vertex="1" parent="1">
          <mxGeometry x="1350" y="65" width="60" height="30" as="geometry" />
        </mxCell>
        <mxCell id="hq3BjescLCWjUcnF5_h6-36" value="Link1 Link2 Link3" style="text;html=1;align=center;verticalAlign=middle;whiteSpace=wrap;rounded=0;" vertex="1" parent="1">
          <mxGeometry x="1020" y="65" width="160" height="30" as="geometry" />
        </mxCell>
        <mxCell id="hq3BjescLCWjUcnF5_h6-37" value="" style="rounded=0;whiteSpace=wrap;html=1;" vertex="1" parent="1">
          <mxGeometry x="820" y="110" width="600" height="100" as="geometry" />
        </mxCell>
        <mxCell id="hq3BjescLCWjUcnF5_h6-38" value="&lt;b&gt;&lt;font style=&quot;font-size: 21px;&quot;&gt;Header text&lt;/font&gt;&lt;/b&gt;" style="text;html=1;align=center;verticalAlign=middle;whiteSpace=wrap;rounded=0;" vertex="1" parent="1">
          <mxGeometry x="985" y="145" width="230" height="30" as="geometry" />
        </mxCell>
        <mxCell id="hq3BjescLCWjUcnF5_h6-39" value="" style="rounded=0;whiteSpace=wrap;html=1;" vertex="1" parent="1">
          <mxGeometry x="820" y="210" width="600" height="300" as="geometry" />
        </mxCell>
        <mxCell id="hq3BjescLCWjUcnF5_h6-40" value="" style="rounded=0;whiteSpace=wrap;html=1;" vertex="1" parent="1">
          <mxGeometry x="1120" y="510" width="300" height="100" as="geometry" />
        </mxCell>
        <mxCell id="hq3BjescLCWjUcnF5_h6-41" value="" style="rounded=0;whiteSpace=wrap;html=1;" vertex="1" parent="1">
          <mxGeometry x="820" y="510" width="300" height="100" as="geometry" />
        </mxCell>
        <mxCell id="hq3BjescLCWjUcnF5_h6-42" value="" style="rounded=0;whiteSpace=wrap;html=1;" vertex="1" parent="1">
          <mxGeometry x="820" y="610" width="300" height="290" as="geometry" />
        </mxCell>
        <mxCell id="hq3BjescLCWjUcnF5_h6-43" value="" style="rounded=0;whiteSpace=wrap;html=1;" vertex="1" parent="1">
          <mxGeometry x="1120" y="610" width="300" height="290" as="geometry" />
        </mxCell>
        <mxCell id="hq3BjescLCWjUcnF5_h6-44" value="" style="rounded=0;whiteSpace=wrap;html=1;" vertex="1" parent="1">
          <mxGeometry x="835" y="630" width="235" height="210" as="geometry" />
        </mxCell>
        <mxCell id="hq3BjescLCWjUcnF5_h6-45" value="Recommended item card" style="rounded=0;whiteSpace=wrap;html=1;" vertex="1" parent="1">
          <mxGeometry x="1150" y="630" width="230" height="210" as="geometry" />
        </mxCell>
        <mxCell id="hq3BjescLCWjUcnF5_h6-46" value="" style="rounded=0;whiteSpace=wrap;html=1;" vertex="1" parent="1">
          <mxGeometry x="820" y="900" width="600" height="260" as="geometry" />
        </mxCell>
        <mxCell id="hq3BjescLCWjUcnF5_h6-47" value="Item card" style="rounded=0;whiteSpace=wrap;html=1;" vertex="1" parent="1">
          <mxGeometry x="860" y="920" width="230" height="210" as="geometry" />
        </mxCell>
        <mxCell id="hq3BjescLCWjUcnF5_h6-48" value="Item card" style="rounded=0;whiteSpace=wrap;html=1;" vertex="1" parent="1">
          <mxGeometry x="1167.5" y="920" width="230" height="210" as="geometry" />
        </mxCell>
        <mxCell id="hq3BjescLCWjUcnF5_h6-50" value="Animation&amp;nbsp;" style="rounded=0;whiteSpace=wrap;html=1;" vertex="1" parent="1">
          <mxGeometry x="820" y="1160" width="600" height="280" as="geometry" />
        </mxCell>
        <mxCell id="hq3BjescLCWjUcnF5_h6-51" value="Insta&amp;nbsp; link" style="rounded=0;whiteSpace=wrap;html=1;" vertex="1" parent="1">
          <mxGeometry x="820" y="1440" width="600" height="100" as="geometry" />
        </mxCell>
        <mxCell id="hq3BjescLCWjUcnF5_h6-52" value="" style="rounded=0;whiteSpace=wrap;html=1;" vertex="1" parent="1">
          <mxGeometry x="820" y="1540" width="600" height="200" as="geometry" />
        </mxCell>
        <mxCell id="hq3BjescLCWjUcnF5_h6-53" value="" style="rounded=0;whiteSpace=wrap;html=1;" vertex="1" parent="1">
          <mxGeometry x="835" y="1565" width="115" height="115" as="geometry" />
        </mxCell>
        <mxCell id="hq3BjescLCWjUcnF5_h6-56" value="" style="rounded=0;whiteSpace=wrap;html=1;" vertex="1" parent="1">
          <mxGeometry x="820" y="1740" width="600" height="120" as="geometry" />
        </mxCell>
        <mxCell id="hq3BjescLCWjUcnF5_h6-57" value="Logo menu" style="text;html=1;align=center;verticalAlign=middle;whiteSpace=wrap;rounded=0;" vertex="1" parent="1">
          <mxGeometry x="835" y="1760" width="60" height="70" as="geometry" />
        </mxCell>
        <mxCell id="hq3BjescLCWjUcnF5_h6-58" value="FAQ&lt;div&gt;&amp;nbsp;menu&lt;/div&gt;" style="text;html=1;align=center;verticalAlign=middle;whiteSpace=wrap;rounded=0;" vertex="1" parent="1">
          <mxGeometry x="1035" y="1754" width="60" height="80" as="geometry" />
        </mxCell>
        <mxCell id="hq3BjescLCWjUcnF5_h6-59" value="Subscribe&amp;nbsp; field" style="rounded=0;whiteSpace=wrap;html=1;" vertex="1" parent="1">
          <mxGeometry x="1194" y="1770" width="201" height="50" as="geometry" />
        </mxCell>
        <mxCell id="hq3BjescLCWjUcnF5_h6-60" value="&lt;b&gt;&lt;font style=&quot;font-size: 25px;&quot;&gt;Desktop&lt;/font&gt;&lt;/b&gt;" style="text;html=1;align=center;verticalAlign=middle;whiteSpace=wrap;rounded=0;" vertex="1" parent="1">
          <mxGeometry x="390" width="60" height="30" as="geometry" />
        </mxCell>
        <mxCell id="hq3BjescLCWjUcnF5_h6-61" value="&lt;b&gt;&lt;font style=&quot;font-size: 25px;&quot;&gt;Tablet&lt;/font&gt;&lt;/b&gt;" style="text;html=1;align=center;verticalAlign=middle;whiteSpace=wrap;rounded=0;" vertex="1" parent="1">
          <mxGeometry x="1065.5" width="60" height="30" as="geometry" />
        </mxCell>
        <mxCell id="hq3BjescLCWjUcnF5_h6-62" value="" style="rounded=0;whiteSpace=wrap;html=1;" vertex="1" parent="1">
          <mxGeometry x="419" y="1565" width="160" height="150" as="geometry" />
        </mxCell>
        <mxCell id="hq3BjescLCWjUcnF5_h6-63" value="" style="rounded=0;whiteSpace=wrap;html=1;" vertex="1" parent="1">
          <mxGeometry x="980" y="1565" width="115" height="115" as="geometry" />
        </mxCell>
        <mxCell id="hq3BjescLCWjUcnF5_h6-64" value="" style="rounded=0;whiteSpace=wrap;html=1;" vertex="1" parent="1">
          <mxGeometry x="1125.5" y="1565" width="115" height="115" as="geometry" />
        </mxCell>
        <mxCell id="hq3BjescLCWjUcnF5_h6-65" value="" style="rounded=0;whiteSpace=wrap;html=1;" vertex="1" parent="1">
          <mxGeometry x="1280" y="1565" width="115" height="115" as="geometry" />
        </mxCell>
        <mxCell id="hq3BjescLCWjUcnF5_h6-66" value="" style="rounded=0;whiteSpace=wrap;html=1;" vertex="1" parent="1">
          <mxGeometry x="1460" y="50" width="420" height="2480" as="geometry" />
        </mxCell>
        <mxCell id="hq3BjescLCWjUcnF5_h6-67" value="" style="rounded=0;whiteSpace=wrap;html=1;" vertex="1" parent="1">
          <mxGeometry x="1460" y="50" width="420" height="60" as="geometry" />
        </mxCell>
        <mxCell id="hq3BjescLCWjUcnF5_h6-68" value="&lt;b&gt;&lt;font style=&quot;font-size: 16px;&quot;&gt;LOGO&lt;/font&gt;&lt;/b&gt;" style="text;html=1;align=center;verticalAlign=middle;whiteSpace=wrap;rounded=0;" vertex="1" parent="1">
          <mxGeometry x="1662.5" y="65" width="60" height="30" as="geometry" />
        </mxCell>
        <mxCell id="hq3BjescLCWjUcnF5_h6-69" value="Basket" style="text;html=1;align=center;verticalAlign=middle;whiteSpace=wrap;rounded=0;" vertex="1" parent="1">
          <mxGeometry x="1800" y="65" width="60" height="30" as="geometry" />
        </mxCell>
        <mxCell id="hq3BjescLCWjUcnF5_h6-71" value="" style="rounded=0;whiteSpace=wrap;html=1;" vertex="1" parent="1">
          <mxGeometry x="1460" y="110" width="420" height="100" as="geometry" />
        </mxCell>
        <mxCell id="hq3BjescLCWjUcnF5_h6-72" value="&lt;b&gt;&lt;font style=&quot;font-size: 21px;&quot;&gt;Header text&lt;/font&gt;&lt;/b&gt;" style="text;html=1;align=center;verticalAlign=middle;whiteSpace=wrap;rounded=0;" vertex="1" parent="1">
          <mxGeometry x="1562.5" y="145" width="230" height="30" as="geometry" />
        </mxCell>
        <mxCell id="hq3BjescLCWjUcnF5_h6-73" value="" style="rounded=0;whiteSpace=wrap;html=1;" vertex="1" parent="1">
          <mxGeometry x="1460" y="210" width="420" height="200" as="geometry" />
        </mxCell>
        <mxCell id="hq3BjescLCWjUcnF5_h6-74" value="" style="rounded=0;whiteSpace=wrap;html=1;" vertex="1" parent="1">
          <mxGeometry x="1460" y="410" width="420" height="100" as="geometry" />
        </mxCell>
        <mxCell id="hq3BjescLCWjUcnF5_h6-75" value="" style="rounded=0;whiteSpace=wrap;html=1;" vertex="1" parent="1">
          <mxGeometry x="1460" y="510" width="420" height="100" as="geometry" />
        </mxCell>
        <mxCell id="hq3BjescLCWjUcnF5_h6-76" value="" style="rounded=0;whiteSpace=wrap;html=1;" vertex="1" parent="1">
          <mxGeometry x="1460" y="610" width="420" height="250" as="geometry" />
        </mxCell>
        <mxCell id="hq3BjescLCWjUcnF5_h6-77" value="" style="rounded=0;whiteSpace=wrap;html=1;" vertex="1" parent="1">
          <mxGeometry x="1460" y="860" width="420" height="270" as="geometry" />
        </mxCell>
        <mxCell id="hq3BjescLCWjUcnF5_h6-78" value="" style="rounded=0;whiteSpace=wrap;html=1;" vertex="1" parent="1">
          <mxGeometry x="1475" y="630" width="195" height="210" as="geometry" />
        </mxCell>
        <mxCell id="hq3BjescLCWjUcnF5_h6-79" value="Recommended item card" style="rounded=0;whiteSpace=wrap;html=1;" vertex="1" parent="1">
          <mxGeometry x="1670" y="890" width="200" height="220" as="geometry" />
        </mxCell>
        <mxCell id="hq3BjescLCWjUcnF5_h6-81" value="Item card" style="rounded=0;whiteSpace=wrap;html=1;" vertex="1" parent="1">
          <mxGeometry x="1492.5" y="1150" width="347.5" height="320" as="geometry" />
        </mxCell>
        <mxCell id="hq3BjescLCWjUcnF5_h6-83" value="Animation&amp;nbsp;" style="rounded=0;whiteSpace=wrap;html=1;" vertex="1" parent="1">
          <mxGeometry x="1460" y="1480" width="420" height="220" as="geometry" />
        </mxCell>
        <mxCell id="hq3BjescLCWjUcnF5_h6-84" value="Insta&amp;nbsp; link" style="rounded=0;whiteSpace=wrap;html=1;" vertex="1" parent="1">
          <mxGeometry x="1460" y="1700" width="420" height="100" as="geometry" />
        </mxCell>
        <mxCell id="hq3BjescLCWjUcnF5_h6-86" value="" style="rounded=0;whiteSpace=wrap;html=1;" vertex="1" parent="1">
          <mxGeometry x="1480" y="1820" width="160" height="150" as="geometry" />
        </mxCell>
        <mxCell id="hq3BjescLCWjUcnF5_h6-87" value="" style="rounded=0;whiteSpace=wrap;html=1;" vertex="1" parent="1">
          <mxGeometry x="1460" y="2150" width="420" height="180" as="geometry" />
        </mxCell>
        <mxCell id="hq3BjescLCWjUcnF5_h6-88" value="Logo menu" style="text;html=1;align=center;verticalAlign=middle;whiteSpace=wrap;rounded=0;" vertex="1" parent="1">
          <mxGeometry x="1465" y="2330" width="410" height="50" as="geometry" />
        </mxCell>
        <mxCell id="hq3BjescLCWjUcnF5_h6-89" value="FAQ&lt;div&gt;&amp;nbsp;menu&lt;/div&gt;" style="text;html=1;align=center;verticalAlign=middle;whiteSpace=wrap;rounded=0;" vertex="1" parent="1">
          <mxGeometry x="1460" y="2360" width="60" height="80" as="geometry" />
        </mxCell>
        <mxCell id="hq3BjescLCWjUcnF5_h6-90" value="Subscribe&amp;nbsp; field" style="rounded=0;whiteSpace=wrap;html=1;" vertex="1" parent="1">
          <mxGeometry x="1475" y="2450" width="385" height="50" as="geometry" />
        </mxCell>
        <mxCell id="hq3BjescLCWjUcnF5_h6-91" value="" style="rounded=0;whiteSpace=wrap;html=1;" vertex="1" parent="1">
          <mxGeometry x="1680" y="1820" width="157.5" height="150" as="geometry" />
        </mxCell>
        <mxCell id="hq3BjescLCWjUcnF5_h6-92" value="" style="rounded=0;whiteSpace=wrap;html=1;" vertex="1" parent="1">
          <mxGeometry x="1480" y="1989" width="160" height="131" as="geometry" />
        </mxCell>
        <mxCell id="hq3BjescLCWjUcnF5_h6-93" value="" style="rounded=0;whiteSpace=wrap;html=1;" vertex="1" parent="1">
          <mxGeometry x="1680" y="1989" width="157.5" height="131" as="geometry" />
        </mxCell>
        <mxCell id="hq3BjescLCWjUcnF5_h6-124" value="&lt;b&gt;&lt;font style=&quot;font-size: 25px;&quot;&gt;Mobile&lt;/font&gt;&lt;/b&gt;" style="text;html=1;align=center;verticalAlign=middle;whiteSpace=wrap;rounded=0;" vertex="1" parent="1">
          <mxGeometry x="1662.5" width="60" height="30" as="geometry" />
        </mxCell>
        <mxCell id="hq3BjescLCWjUcnF5_h6-128" value="" style="group" vertex="1" connectable="0" parent="1">
          <mxGeometry x="1470" y="70" width="40" height="20" as="geometry" />
        </mxCell>
        <mxCell id="hq3BjescLCWjUcnF5_h6-126" value="" style="endArrow=none;html=1;rounded=0;shape=link;" edge="1" parent="hq3BjescLCWjUcnF5_h6-128">
          <mxGeometry width="50" height="50" relative="1" as="geometry">
            <mxPoint as="sourcePoint" />
            <mxPoint x="40" as="targetPoint" />
          </mxGeometry>
        </mxCell>
        <mxCell id="hq3BjescLCWjUcnF5_h6-127" value="" style="endArrow=none;html=1;rounded=0;shape=link;" edge="1" parent="hq3BjescLCWjUcnF5_h6-128">
          <mxGeometry width="50" height="50" relative="1" as="geometry">
            <mxPoint y="20" as="sourcePoint" />
            <mxPoint x="40" y="20" as="targetPoint" />
          </mxGeometry>
        </mxCell>
      </root>
    </mxGraphModel>
  </diagram>
</mxfile>
